# Blender v2.93.4 OBJ File: 'untitled.blend'
# www.blender.org
mtllib custom.mtl
o custom
v 0.000000 0.000000 0.000000
v 1.000000 1.000000 0.000000
v 1.000000 0.000000 0.000000
v 0.000000 1.000000 0.000000
v 0.000000 -0.000000 1.000000
v 1.000000 -0.000000 1.000000
v 1.000000 1.000000 1.000000
v 0.000000 1.000000 1.000000
vt 1.000000 1.000000
vt 0.000000 0.000000
vt 0.000000 1.000000
vt 1.000000 0.000000
vt 0.000000 1.000000
vt 1.000000 1.000000
vt 1.000000 0.000000
vt 0.000000 0.000000
vt 0.000000 1.000000
vt 1.000000 0.000000
vt 0.000000 0.000000
vt 1.000000 1.000000
vt 1.000000 1.000000
vt 1.000000 0.000000
vt 0.000000 1.000000
vt 1.000000 1.000000
vt 1.000000 0.000000
vt 0.000000 0.000000
vt 0.000000 0.000000
vt 0.000000 1.000000
vn 0.0000 0.0000 -1.0000
vn 0.0000 -0.0000 1.0000
vn -1.0000 0.0000 0.0000
vn 0.0000 1.0000 0.0000
vn 0.0000 -1.0000 -0.0000
vn 1.0000 0.0000 0.0000
usemtl buffy-gray.002
s 1
f 1/1/1 2/2/1 3/3/1
f 1/1/1 4/4/1 2/2/1
f 5/5/2 6/6/2 7/7/2
f 5/5/2 7/7/2 8/8/2
usemtl buffy-blue.002
f 1/9/3 8/10/3 4/11/3
f 1/9/3 5/12/3 8/10/3
usemtl buffy-red.002
f 4/11/4 7/13/4 2/14/4
f 4/11/4 8/15/4 7/13/4
f 1/9/5 3/16/5 6/17/5
f 1/9/5 6/17/5 5/18/5
usemtl buffy-green.002
f 3/16/6 2/14/6 7/19/6
f 3/16/6 7/19/6 6/20/6
o Plane
v -0.450930 -0.000000 1.596413
v 1.549070 -0.000000 1.596413
v 1.549070 0.000000 -0.403587
v -0.450930 0.000000 -0.403587
vt 0.000000 0.000000
vt 1.000000 0.000000
vt 1.000000 1.000000
vt 0.000000 1.000000
vn 0.0000 1.0000 0.0000
usemtl Material.002
s 1
f 9/21/7 10/22/7 11/23/7 12/24/7
o Plane.001
v 1.545317 -0.015150 1.500351
v 1.545317 -0.015150 -0.499649
v 1.545317 1.984850 -0.499649
v 1.545317 1.984850 1.500351
vt 0.000000 0.000000
vt 1.000000 0.000000
vt 1.000000 1.000000
vt 0.000000 1.000000
vn 1.0000 -0.0000 -0.0000
usemtl Material.001
s 1
f 13/25/8 14/26/8 15/27/8 16/28/8
o Plane.002
v -0.500351 -0.015150 1.545317
v 1.499649 -0.015150 1.545317
v 1.499649 1.984850 1.545317
v -0.500351 1.984850 1.545317
vt 0.000000 0.000000
vt 1.000000 0.000000
vt 1.000000 1.000000
vt 0.000000 1.000000
vn 0.0000 -0.0000 1.0000
usemtl Material.003
s 1
f 17/29/9 18/30/9 19/31/9 20/32/9
o Plane.003
v 2.045317 -0.015150 1.500351
v 2.045317 -0.015150 -0.499649
v 2.045317 1.984850 -0.499649
v 2.045317 1.984850 1.500351
vt 0.000000 0.000000
vt 1.000000 0.000000
vt 1.000000 1.000000
vt 0.000000 1.000000
vn 1.0000 0.0000 -0.0000
usemtl Material.004
s 1
f 21/33/10 22/34/10 23/35/10 24/36/10
